<?xml version="1.0" encoding="UTF-8" standalone="no"?>
<!-- Created with Inkscape (http://www.inkscape.org/) -->

<svg
   xmlns:dc="http://purl.org/dc/elements/1.1/"
   xmlns:cc="http://creativecommons.org/ns#"
   xmlns:rdf="http://www.w3.org/1999/02/22-rdf-syntax-ns#"
   xmlns:svg="http://www.w3.org/2000/svg"
   xmlns="http://www.w3.org/2000/svg"
   xmlns:sodipodi="http://sodipodi.sourceforge.net/DTD/sodipodi-0.dtd"
   xmlns:inkscape="http://www.inkscape.org/namespaces/inkscape"
   width="210mm"
   height="297mm"
   viewBox="0 0 210 297"
   version="1.1"
   id="svg856"
   inkscape:version="0.92.5 (2060ec1f9f, 2020-04-08)"
   sodipodi:docname="elfcall.svg">
  <defs
     id="defs850" />
  <sodipodi:namedview
     id="base"
     pagecolor="#ffffff"
     bordercolor="#666666"
     borderopacity="1.0"
     inkscape:pageopacity="0.0"
     inkscape:pageshadow="2"
     inkscape:zoom="0.7"
     inkscape:cx="108.82081"
     inkscape:cy="560"
     inkscape:document-units="mm"
     inkscape:current-layer="g1461"
     showgrid="false"
     inkscape:window-width="1848"
     inkscape:window-height="1016"
     inkscape:window-x="72"
     inkscape:window-y="27"
     inkscape:window-maximized="1" />
  <metadata
     id="metadata853">
    <rdf:RDF>
      <cc:Work
         rdf:about="">
        <dc:format>image/svg+xml</dc:format>
        <dc:type
           rdf:resource="http://purl.org/dc/dcmitype/StillImage" />
        <dc:title></dc:title>
      </cc:Work>
    </rdf:RDF>
  </metadata>
  <g
     inkscape:label="Layer 1"
     inkscape:groupmode="layer"
     id="layer1">
    <g
       id="g1461">
      <path
         style="fill:#1ad97e;stroke-width:0.26458335;fill-opacity:1"
         d="m 64.407856,120.12051 c -2.469838,-0.42108 -4.529043,-1.70534 -6.126116,-3.82065 -0.738842,-0.97859 -1.298181,-1.42968 -2.053286,-1.65591 -1.884242,-0.56453 -2.86561,-2.27354 -2.43577,-4.24179 0.233485,-1.06913 0.863451,-1.80088 2.091099,-2.42897 0.697823,-0.35702 1.052082,-0.80027 1.437475,-1.79859 0.288963,-0.74853 1.754451,-2.91456 3.368995,-4.97948 l 2.857563,-3.65467 -0.163366,-1.38999 c -0.197533,-1.6807 0.276827,-2.57803 1.670728,-3.16044 2.15579,-0.90075 4.390596,1.15541 3.760136,3.45955 -0.19495,0.71248 0.03327,1.10268 2.688133,4.59595 1.595644,2.09955 2.901169,3.98635 2.901169,4.19289 0,0.83739 1.059304,2.40732 1.843495,2.73214 1.021908,0.42329 2.027211,1.60069 2.255954,2.64214 0.372205,1.69464 -1.055251,3.80373 -2.812238,4.15512 -0.508008,0.10161 -1.05783,0.57184 -1.678072,1.43517 -2.146067,2.98717 -5.954003,4.54014 -9.605899,3.91753 z m 3.945176,-3.29024 c 3.647249,-1.24274 5.549744,-5.65267 3.904676,-9.05092 -0.745504,-1.54001 -1.273144,-1.83097 -4.008647,-2.21057 -2.763663,-0.3835 -6.303394,-0.0115 -7.145936,0.75099 -1.255491,1.13621 -1.919125,3.62429 -1.494631,5.60363 0.856953,3.99584 4.847112,6.23486 8.744538,4.90687 z m -3.949533,-2.51122 c -0.480145,-0.29274 -0.800541,-0.64948 -0.711989,-0.79276 0.216414,-0.35017 4.892273,-0.34256 4.892273,0.008 0,0.44483 -1.664602,1.31705 -2.513542,1.31705 -0.436562,0 -1.186595,-0.23952 -1.666742,-0.53225 z M 62.2867,110.30244 c -0.564908,-0.5649 -0.376403,-1.74837 0.354796,-2.22747 1.360986,-0.89175 2.915779,0.82846 1.831596,2.02647 -0.523916,0.57892 -1.700323,0.68707 -2.186392,0.201 z m 5.560872,-0.0132 c -0.639718,-0.77831 -0.361768,-2.18289 0.485161,-2.4517 0.77756,-0.24678 1.457592,0.0676 1.807533,0.83563 0.255606,0.561 0.237371,0.80563 -0.09824,1.31783 -0.455038,0.69448 -1.726716,0.86731 -2.194454,0.29824 z"
         id="path1469"
         inkscape:connector-curvature="0"
         sodipodi:nodetypes="sscsssccsscssccccsccccccccssccccccccccc" />
      <text
         xml:space="preserve"
         style="font-style:normal;font-weight:normal;font-size:10.58333302px;line-height:1.25;font-family:sans-serif;letter-spacing:0px;word-spacing:0px;fill:#000000;fill-opacity:1;stroke:none;stroke-width:0.26458332"
         x="83.53273"
         y="114.4375"
         id="text1481"><tspan
           sodipodi:role="line"
           id="tspan1479"
           x="83.53273"
           y="114.4375"
           style="font-style:normal;font-variant:normal;font-weight:bold;font-stretch:normal;font-size:17.63888931px;font-family:'Noto Sans CJK TC';-inkscape-font-specification:'Noto Sans CJK TC Bold';stroke-width:0.26458332;fill:#6c6c6c;fill-opacity:1">elfcall</tspan></text>
      <flowRoot
         xml:space="preserve"
         id="flowRoot1483"
         style="fill:black;fill-opacity:1;line-height:1.25;stroke:none;font-family:sans-serif;font-style:normal;font-weight:normal;font-size:40px;letter-spacing:0px;word-spacing:0px"><flowRegion
           id="flowRegion1485"><rect
             id="rect1487"
             width="568.57141"
             height="484.28571"
             x="82.85714"
             y="293.94824" /></flowRegion><flowPara
           id="flowPara1489"></flowPara></flowRoot>    </g>
  </g>
</svg>
